<svg width="34" height="34" viewBox="0 0 34 34" fill="none" xmlns="http://www.w3.org/2000/svg">
<circle cx="17" cy="17" r="17" transform="matrix(-1 0 0 1 34 0)" fill="black" fill-opacity="0.65"/>
<path d="M13.2082 23.791C13.4859 24.0697 13.936 24.0697 14.2137 23.791L19.9755 18.0088L19.9946 18.028L21 17.0192L20.9809 17L21 16.9808L19.9946 15.9717L19.9755 15.9908L14.2137 10.209C13.9361 9.93033 13.4859 9.93033 13.2083 10.209C13.0289 10.3891 12.9654 10.6413 13.0177 10.8723C13.0465 10.9987 13.11 11.1192 13.2083 11.2178L18.9701 17L13.2082 22.7822C12.9306 23.0605 12.9306 23.5123 13.2082 23.791Z" fill="white"/>
</svg>
