<svg width="24" height="24" viewBox="0 0 24 24" fill="none" xmlns="http://www.w3.org/2000/svg">
<path d="M2.98462 1.78516C2.43091 1.78516 1.98193 2.23389 1.98193 2.78809V21.1777C1.98193 21.7319 2.43091 22.1807 2.98462 22.1807C3.53833 22.1807 3.9873 21.7319 3.9873 21.1777V2.78809C3.9873 2.23389 3.53833 1.78516 2.98462 1.78516Z" fill="#B3B3B3"/>
<path d="M8.02563 2.78809C8.02563 2.23389 8.47461 1.78516 9.02832 1.78516C9.58203 1.78516 10.031 2.23389 10.031 2.78809V21.1777C10.031 21.7319 9.58203 22.1807 9.02832 22.1807C8.47461 22.1807 8.02563 21.7319 8.02563 21.1777V2.78809Z" fill="#B3B3B3"/>
<path fill-rule="evenodd" clip-rule="evenodd" d="M14.0276 3.0083C14.0276 2.14941 14.9678 1.62207 15.7009 2.06982L21.4915 5.60547C21.6528 5.7041 21.783 5.84033 21.8738 5.99902C21.967 6.1626 22.0183 6.3501 22.0183 6.54443V21.1147C22.0183 21.7222 21.5256 22.2148 20.9182 22.2148H15.1277C14.52 22.2148 14.0276 21.7222 14.0276 21.1147V3.0083ZM16.0276 4.61279V20.2148H20.0183V7.04932L16.0276 4.61279Z" fill="#B3B3B3"/>
</svg>
