<svg width="22" height="22" viewBox="0 0 22 22" fill="none" xmlns="http://www.w3.org/2000/svg">
<path fill-rule="evenodd" clip-rule="evenodd" d="M15 11C15 13.209 13.209 15 11 15C8.79102 15 7 13.209 7 11C7 8.79102 8.79102 7 11 7C13.209 7 15 8.79102 15 11ZM13 11C13 12.1045 12.1045 13 11 13C9.89551 13 9 12.1045 9 11C9 9.89551 9.89551 9 11 9C12.1045 9 13 9.89551 13 11Z" fill="current" stroke-width="0"/>
<path fill-rule="evenodd" clip-rule="evenodd" d="M22 11C22 17.0752 17.0752 22 11 22C4.9248 22 0 17.0752 0 11C0 4.9248 4.9248 0 11 0C17.0752 0 22 4.9248 22 11ZM20 11C20 15.9707 15.9707 20 11 20C6.0293 20 2 15.9707 2 11C2 6.0293 6.0293 2 11 2C15.9707 2 20 6.0293 20 11Z" fill="current" stroke-width="0"/>
</svg>
