<svg width="23" height="22" viewBox="0 0 23 22" fill="none"  xmlns="http://www.w3.org/2000/svg">
<path fill-rule="evenodd" clip-rule="evenodd" d="M15.9805 11C15.9805 13.209 14.1895 15 11.9805 15C9.77148 15 7.98047 13.209 7.98047 11C7.98047 8.79102 9.77148 7 11.9805 7C14.1895 7 15.9805 8.79102 15.9805 11ZM13.9805 11C13.9805 12.1045 13.085 13 11.9805 13C10.876 13 9.98047 12.1045 9.98047 11C9.98047 9.89551 10.876 9 11.9805 9C13.085 9 13.9805 9.89551 13.9805 11Z" fill="white" stroke= 'none'/>
<path fill-rule="evenodd" clip-rule="evenodd" d="M22.9805 11C22.9805 17.0752 18.0557 22 11.9805 22C5.90527 22 0.980469 17.0752 0.980469 11C0.980469 4.9248 5.90527 0 11.9805 0C18.0557 0 22.9805 4.9248 22.9805 11ZM20.9805 11C20.9805 15.9707 16.9512 20 11.9805 20C7.00977 20 2.98047 15.9707 2.98047 11C2.98047 6.0293 7.00977 2 11.9805 2C16.9512 2 20.9805 6.0293 20.9805 11Z" stroke= 'none' fill="white"/>
<rect x="9" y="9" width="5" height="4" stroke= 'none' fill="white"/>
</svg>
