<svg width="24" height="24" viewBox="0 0 24 24" fill="none" xmlns="http://www.w3.org/2000/svg">
<path d="M1.79792 14.0097H5.28546C5.57459 14.0097 5.84122 14.1657 5.98287 14.4177L8.60591 19.0852C8.70388 19.2595 8.73653 19.4657 8.67504 19.656C8.24092 20.9992 7.15139 21.7258 6.4304 21.9887C6.2143 22.0675 5.97851 22.0073 5.80767 21.8533C4.06911 20.286 2.27332 16.9017 1.79792 14.0097ZM1.79792 14.0097C1.1912 10.3188 2.59621 1.91333 12.3774 1.91333C15.9722 1.91333 22.972 5.3642 22.2743 14.0097M22.2743 14.0097H18.8907C18.6133 14.0097 18.3556 14.1534 18.2099 14.3896L15.3849 18.9679C15.2364 19.2086 15.223 19.5119 15.378 19.7485C15.8703 20.5002 16.7914 21.5164 17.867 21.5892C17.9479 21.5947 18.0282 21.5834 18.1011 21.5481C19.008 21.1097 21.2749 18.4841 22.2743 14.0097Z" stroke="#B3B3B3" stroke-width="2.2"/>
</svg>
