export default
<svg width="24" height="24" viewBox="0 0 24 24" fill="none" xmlns="http://www.w3.org/2000/svg">
<path d="M11.8645 2.51136L2.99238 7.7432C2.96189 7.76118 2.94318 7.79394 2.94318 7.82934V21.4183C2.94318 21.4736 2.98795 21.5183 3.04318 21.5183H9.36594C9.42117 21.5183 9.46594 21.4736 9.46594 21.4183V14.6241C9.46594 14.5689 9.51071 14.5241 9.56594 14.5241H14.4414C14.4966 14.5241 14.5414 14.5689 14.5414 14.6241V21.4183C14.5414 21.4736 14.5862 21.5183 14.6414 21.5183H20.9568C21.012 21.5183 21.0568 21.4736 21.0568 21.4183V7.82988C21.0568 7.79419 21.0378 7.76121 21.0069 7.74333L11.9654 2.51095C11.9342 2.49287 11.8956 2.49303 11.8645 2.51136Z" stroke="current" stroke-width="2"/>
</svg>
